<svg width="338" height="74" viewBox="0 0 338 74" fill="none" xmlns="http://www.w3.org/2000/svg">
<path d="M7.2 53L7.8 35.3H1.1C0.566667 35.3 0.3 35.1 0.3 34.7C0.3 33.5 0.866667 32.1333 2 30.6C3.13333 29 4.36667 28.2 5.7 28.2H7.8C7.66667 23 7.53333 19.2667 7.4 17C7.13333 12.9333 6.46667 9.8 5.4 7.6L4.9 6.59999C4.63333 6.26666 4.5 5.86666 4.5 5.4C4.5 4.93333 4.86667 4.53333 5.6 4.2C6.33333 3.86666 7.4 3.46666 8.8 3C10.2667 2.53333 13.3333 1.93333 18 1.2C22.6667 0.399997 27.7333 -3.8147e-06 33.2 -3.8147e-06C38.7333 -3.8147e-06 41.7333 0.399997 42.2 1.2C42.7333 2 43 3.26666 43 5C43 6.66666 42.7667 7.49999 42.3 7.49999C42.2333 7.49999 42 7.46666 41.6 7.4C40.5333 7.13333 38.9 7 36.7 7C34.5 7 32.1333 7.2 29.6 7.6C27.0667 8 25.1333 8.4 23.8 8.8L21.9 9.5C21.3667 9.63333 20.9667 10.1 20.7 10.9C20.1667 14.8333 19.9 20.6 19.9 28.2H36.1C36.7 28.2 37 28.4 37 28.8C37 30 36.4667 31.4 35.4 33C34.3333 34.6 33.1333 35.4 31.8 35.4L19.9 35.3L20.6 65.3C20.6 66.7667 20.3667 67.8333 19.9 68.5C18.6333 70.1667 16.4667 71.4 13.4 72.2C10.4 73.0667 7.9 73.5 5.9 73.5C5.36667 73.5 5.1 73.1667 5.1 72.5C5.1 72.1667 5.13333 71.9 5.2 71.7C6 70.5667 6.66667 64.3333 7.2 53ZM314.301 45.6L314.401 48.1C314.401 48.5 314.667 48.7 315.201 48.7C317.334 48.5 319.201 47.9667 320.801 47.1C322.401 46.1667 323.601 45.1333 324.401 44C326.001 41.5333 326.867 39.4 327.001 37.6L327.101 36.4C327.101 32.8 325.667 31 322.801 31C320.667 31 318.934 31.9333 317.601 33.8C315.401 36.7333 314.301 40.6667 314.301 45.6ZM336.101 58.9C336.101 61.4333 335.567 63.6667 334.501 65.6C333.501 67.4667 332.334 68.8667 331.001 69.8C329.734 70.6667 328.234 71.3667 326.501 71.9C324.301 72.5667 322.201 72.9 320.201 72.9C314.601 72.9 310.467 70.8 307.801 66.6C305.134 62.4 303.801 57.0667 303.801 50.6C303.801 44.0667 305.434 38.2667 308.701 33.2C312.034 28.1333 317.001 25.6 323.601 25.6C329.601 25.6 333.667 27.7 335.801 31.9C336.667 33.5 337.101 35.0333 337.101 36.5C337.101 37.9 337.034 39.0333 336.901 39.9C336.767 40.7 336.301 41.9333 335.501 43.6C334.701 45.2667 333.634 46.7667 332.301 48.1C330.967 49.4333 328.867 50.7 326.001 51.9C323.134 53.1 319.767 53.9 315.901 54.3C315.367 54.3 315.101 54.5333 315.101 55C315.101 55.6 315.301 56.5 315.701 57.7C316.167 58.8333 316.667 59.8 317.201 60.6C318.667 62.4667 320.834 63.4 323.701 63.4C326.567 63.4 329.001 62.4667 331.001 60.6C332.067 59.6 332.934 58.3667 333.601 56.9C333.867 56.3667 334.201 56.1 334.601 56.1C335.067 56.1 335.434 56.4667 335.701 57.2C335.967 57.9333 336.101 58.5 336.101 58.9Z" fill="#FD7FCB"/>
<path d="M67.0227 33.3C65.2893 33.3667 64.0227 33.4333 63.2227 33.5C62.4893 33.5 62.1227 33.3 62.1227 32.9C62.1227 32.5 62.3227 32.1 62.7227 31.7C66.9893 27.7667 74.1893 25.8 84.3227 25.8C87.7893 25.8 90.5227 26.1 92.5227 26.7L93.5227 27C94.3227 27.3333 94.7227 27.7 94.7227 28.1C94.7227 28.4333 94.4893 28.7 94.0227 28.9C92.2227 29.4333 90.4893 30.3 88.8227 31.5C87.156 32.6333 86.3227 33.4333 86.3227 33.9L86.9227 34.6C89.056 35.8 90.6893 37.7 91.8227 40.3C93.0227 42.9 93.6893 45.2 93.8227 47.2L94.0227 50.3C94.0227 56.9 92.1893 62.3333 88.5227 66.6C84.856 70.8667 79.856 73 73.5227 73C70.3227 73 67.556 72.4333 65.2227 71.3C62.8893 70.1667 61.156 68.9 60.0227 67.5C58.956 66.0333 58.0893 64.4 57.4227 62.6C56.6227 60.1333 56.2227 57.6 56.2227 55C56.2227 52.3333 56.656 49.6667 57.5227 47C58.456 44.3333 59.4893 42.3667 60.6227 41.1C61.8227 39.8333 63.156 38.8 64.6227 38C66.4893 37 67.9893 36.5 69.1227 36.5C70.256 36.5 70.8227 36.7333 70.8227 37.2L70.2227 38.2C68.756 39.9333 67.6893 42.2 67.0227 45C66.4227 47.8 66.1227 50.3 66.1227 52.5C66.1227 54.6333 66.3893 56.7667 66.9227 58.9C67.456 61.0333 68.056 62.6333 68.7227 63.7C69.3893 64.7 70.156 65.4667 71.0227 66C72.2893 66.8 73.6227 67.2 75.0227 67.2C76.4227 67.2 77.7893 66.6667 79.1227 65.6C80.456 64.4667 81.4227 63 82.0227 61.2C83.2227 57.8667 83.8227 54.4333 83.8227 50.9C83.8227 45.3 82.3893 40.9667 79.5227 37.9C76.7227 34.8333 72.556 33.3 67.0227 33.3Z" fill="#EB7FFD"/>
<path d="M143.215 44.2L143.615 47.7C143.615 48.9667 142.415 49.6 140.015 49.6C135.148 49.6 132.715 47.7667 132.715 44.1C132.715 43.2333 132.948 42.0333 133.415 40.5C133.882 38.9667 134.115 37.6333 134.115 36.5C134.115 35.3667 133.782 34.4 133.115 33.6C132.448 32.7333 131.482 32.3 130.215 32.3C128.948 32.3 127.848 32.7667 126.915 33.7C126.048 34.5667 125.515 35.4667 125.315 36.4L124.915 37.8C124.515 39.8667 124.315 43.3333 124.315 48.2C124.315 53 124.382 56.8 124.515 59.6C124.648 62.3333 124.782 64.2333 124.915 65.3C125.048 66.3 125.115 66.9 125.115 67.1C125.115 68.7667 124.082 70.1 122.015 71.1C119.948 72.1667 117.882 72.7 115.815 72.7C113.748 72.7 112.715 72.2667 112.715 71.4L113.215 68.3C114.148 62.5 114.615 54.9333 114.615 45.6C114.615 36.2667 114.282 29.9333 113.615 26.6C113.615 25.8 114.315 25.4 115.715 25.4C119.315 25.4 121.715 26.6333 122.915 29.1C122.982 29.3667 123.082 29.5 123.215 29.5C123.415 29.5 123.882 29.2 124.615 28.6C126.815 26.8 129.415 25.9 132.415 25.9C134.282 25.9 136.148 26.2667 138.015 27C141.815 28.5333 143.715 31.7333 143.715 36.6L143.215 44.2Z" fill="#917FFD"/>
<path d="M160.262 32L160.562 28C160.628 27.4 161.095 27.1 161.962 27.1H165.462L165.062 19.1V18.7C165.062 17.1667 166.228 15.7 168.562 14.3C170.895 12.9 173.028 12.2 174.962 12.2C175.562 12.2 175.862 12.4667 175.862 13V13.1C175.595 14.9 175.328 19.5333 175.062 27C177.995 27 179.862 26.9333 180.662 26.8C181.462 26.6667 181.895 26.6 181.962 26.6C182.428 26.6 182.662 27 182.662 27.8C182.662 28.6 182.295 29.6333 181.562 30.9C180.828 32.1 180.028 32.7333 179.162 32.8H174.962C174.895 35.0667 174.862 38.9 174.862 44.3C174.862 49.6333 174.895 54.0333 174.962 57.5C175.095 60.9667 175.228 63.6 175.362 65.4C175.495 67.1333 175.628 68.5333 175.762 69.6C175.962 70.6667 176.095 71.4333 176.162 71.9C176.295 72.3667 176.362 72.6667 176.362 72.8C176.362 73.4667 175.928 73.8333 175.062 73.9C172.462 73.9 169.862 73.5333 167.262 72.8C164.728 72.0667 163.462 70.8 163.462 69C164.862 57.8 165.562 45.7667 165.562 32.9C163.762 32.9 162.395 32.9667 161.462 33.1H161.362C160.762 33.1 160.395 32.7333 160.262 32Z" fill="#7FC8FD"/>
<path d="M233.025 26.5C231.825 33.7 231.225 42.8667 231.225 54C231.225 62.2 231.558 67.6 232.225 70.2L232.625 71.5C232.625 72.3667 231.892 72.8 230.425 72.8C225.292 72.8 222.358 71.3667 221.625 68.5C221.558 68.1667 221.392 68 221.125 68C220.925 68 220.725 68.1333 220.525 68.4C218.458 71.1333 215.258 72.5 210.925 72.5C208.525 72.5 206.025 71.9 203.425 70.7C201.825 69.9667 200.525 68.7 199.525 66.9C198.525 65.0333 198.025 62.7667 198.025 60.1L199.525 38.2C199.525 33.6 199.058 30.3333 198.125 28.4C197.792 27.6667 197.625 27.2 197.625 27C197.625 26.6 197.792 26.3333 198.125 26.2C199.192 25.8667 200.558 25.7 202.225 25.7C208.692 25.7 211.925 28.3667 211.925 33.7C211.925 35.3667 211.225 39.1667 209.825 45.1C208.492 51.0333 207.825 55.2667 207.825 57.8C207.825 60.2667 208.358 62.1667 209.425 63.5C210.558 64.8333 212.092 65.5 214.025 65.5C216.025 65.5 217.592 64.8 218.725 63.4C219.858 62 220.525 60.6 220.725 59.2L221.025 57.1C221.292 54.7667 221.425 50.6667 221.425 44.8C221.425 38.9333 221.225 35.2333 220.825 33.7C220.492 32.1 220.325 31.1 220.325 30.7C220.325 29.0333 221.658 27.7333 224.325 26.8C226.992 25.8 229.392 25.3 231.525 25.3C232.525 25.3 233.025 25.7 233.025 26.5Z" fill="#917FFD"/>
<path d="M251.359 71.7C252.559 64.5 253.159 55.8667 253.159 45.8C253.159 35.7333 252.859 29.2 252.259 26.2C252.259 25.3333 253.259 24.9 255.259 24.9C258.326 24.9 260.359 26.0667 261.359 28.4C261.426 28.6 261.593 28.7 261.859 28.7C262.126 28.7 262.326 28.6333 262.459 28.5C264.526 26.3667 267.726 25.3 272.059 25.3C276.393 25.3 279.826 26.4 282.359 28.6C284.893 30.8 286.159 34 286.159 38.2C286.159 40.7333 285.926 44.3333 285.459 49C285.059 53.6667 284.859 57.1333 284.859 59.4C284.859 64.8 285.759 68.7 287.559 71.1C287.826 71.4333 287.959 71.7667 287.959 72.1C287.959 72.9667 287.026 73.4 285.159 73.4C276.893 73.4 272.759 69.7333 272.759 62.4C272.759 59.6 273.393 55.7 274.659 50.7C275.926 45.7 276.559 41.9 276.559 39.3C276.559 33.9667 274.359 31.3 269.959 31.3C267.826 31.3 266.193 31.9333 265.059 33.2C263.993 34.4667 263.393 35.9333 263.259 37.6C263.126 39.2 263.059 42.2667 263.059 46.8C263.059 53.7333 263.293 59.7667 263.759 64.9L263.959 67.1C263.959 68.9667 262.726 70.4 260.259 71.4C257.859 72.4667 255.759 73 253.959 73C252.226 73 251.359 72.5667 251.359 71.7Z" fill="#EB7FFD"/>
</svg>
